<?xml version="1.0" encoding="UTF-8"?>
<!DOCTYPE svg PUBLIC "-//W3C//DTD SVG 1.1//EN" "http://www.w3.org/Graphics/SVG/1.1/DTD/svg11.dtd">
<svg version="1.2" width="26.99mm" height="11.11mm" viewBox="0 0 2699 1111" preserveAspectRatio="xMidYMid" fill-rule="evenodd" stroke-width="28.222" stroke-linejoin="round" xmlns="http://www.w3.org/2000/svg" xmlns:ooo="http://xml.openoffice.org/svg/export" xmlns:xlink="http://www.w3.org/1999/xlink" xmlns:presentation="http://sun.com/xmlns/staroffice/presentation" xmlns:smil="http://www.w3.org/2001/SMIL20/" xmlns:anim="urn:oasis:names:tc:opendocument:xmlns:animation:1.0" xml:space="preserve">
 <defs class="ClipPathGroup">
  <clipPath id="presentation_clip_path" clipPathUnits="userSpaceOnUse">
   <rect x="0" y="0" width="2699" height="1111"/>
  </clipPath>
  <clipPath id="presentation_clip_path_shrink" clipPathUnits="userSpaceOnUse">
   <rect x="2" y="1" width="2694" height="1109"/>
  </clipPath>
 </defs>
 <defs class="TextShapeIndex">
  <g ooo:slide="id1" ooo:id-list="id3"/>
 </defs>
 <defs class="EmbeddedBulletChars">
  <g id="bullet-char-template-57356" transform="scale(0.00048828125,-0.00048828125)">
   <path d="M 580,1141 L 1163,571 580,0 -4,571 580,1141 Z"/>
  </g>
  <g id="bullet-char-template-57354" transform="scale(0.00048828125,-0.00048828125)">
   <path d="M 8,1128 L 1137,1128 1137,0 8,0 8,1128 Z"/>
  </g>
  <g id="bullet-char-template-10146" transform="scale(0.00048828125,-0.00048828125)">
   <path d="M 174,0 L 602,739 174,1481 1456,739 174,0 Z M 1358,739 L 309,1346 659,739 1358,739 Z"/>
  </g>
  <g id="bullet-char-template-10132" transform="scale(0.00048828125,-0.00048828125)">
   <path d="M 2015,739 L 1276,0 717,0 1260,543 174,543 174,936 1260,936 717,1481 1274,1481 2015,739 Z"/>
  </g>
  <g id="bullet-char-template-10007" transform="scale(0.00048828125,-0.00048828125)">
   <path d="M 0,-2 C -7,14 -16,27 -25,37 L 356,567 C 262,823 215,952 215,954 215,979 228,992 255,992 264,992 276,990 289,987 310,991 331,999 354,1012 L 381,999 492,748 772,1049 836,1024 860,1049 C 881,1039 901,1025 922,1006 886,937 835,863 770,784 769,783 710,716 594,584 L 774,223 C 774,196 753,168 711,139 L 727,119 C 717,90 699,76 672,76 641,76 570,178 457,381 L 164,-76 C 142,-110 111,-127 72,-127 30,-127 9,-110 8,-76 1,-67 -2,-52 -2,-32 -2,-23 -1,-13 0,-2 Z"/>
  </g>
  <g id="bullet-char-template-10004" transform="scale(0.00048828125,-0.00048828125)">
   <path d="M 285,-33 C 182,-33 111,30 74,156 52,228 41,333 41,471 41,549 55,616 82,672 116,743 169,778 240,778 293,778 328,747 346,684 L 369,508 C 377,444 397,411 428,410 L 1163,1116 C 1174,1127 1196,1133 1229,1133 1271,1133 1292,1118 1292,1087 L 1292,965 C 1292,929 1282,901 1262,881 L 442,47 C 390,-6 338,-33 285,-33 Z"/>
  </g>
  <g id="bullet-char-template-9679" transform="scale(0.00048828125,-0.00048828125)">
   <path d="M 813,0 C 632,0 489,54 383,161 276,268 223,411 223,592 223,773 276,916 383,1023 489,1130 632,1184 813,1184 992,1184 1136,1130 1245,1023 1353,916 1407,772 1407,592 1407,412 1353,268 1245,161 1136,54 992,0 813,0 Z"/>
  </g>
  <g id="bullet-char-template-8226" transform="scale(0.00048828125,-0.00048828125)">
   <path d="M 346,457 C 273,457 209,483 155,535 101,586 74,649 74,723 74,796 101,859 155,911 209,963 273,989 346,989 419,989 480,963 531,910 582,859 608,796 608,723 608,648 583,586 532,535 482,483 420,457 346,457 Z"/>
  </g>
  <g id="bullet-char-template-8211" transform="scale(0.00048828125,-0.00048828125)">
   <path d="M -4,459 L 1135,459 1135,606 -4,606 -4,459 Z"/>
  </g>
  <g id="bullet-char-template-61548" transform="scale(0.00048828125,-0.00048828125)">
   <path d="M 173,740 C 173,903 231,1043 346,1159 462,1274 601,1332 765,1332 928,1332 1067,1274 1183,1159 1299,1043 1357,903 1357,740 1357,577 1299,437 1183,322 1067,206 928,148 765,148 601,148 462,206 346,322 231,437 173,577 173,740 Z"/>
  </g>
 </defs>
 <defs class="TextEmbeddedBitmaps"/>
 <g>
  <g id="id2" class="Master_Slide">
   <g id="bg-id2" class="Background"/>
   <g id="bo-id2" class="BackgroundObjects"/>
  </g>
 </g>
 <g class="SlideGroup">
  <g>
   <g id="container-id1">
    <g id="id1" class="Slide" clip-path="url(#presentation_clip_path)">
     <g class="Page">
      <g class="Graphic">
       <g id="id3">
        <rect class="BoundingBox" stroke="none" fill="none" x="0" y="0" width="2699" height="1111"/>
        <defs>
         <clipPath id="clip_path_1" clipPathUnits="userSpaceOnUse">
          <path d="M 0,0 L 2698,0 2698,1110 0,1110 0,0 Z"/>
         </clipPath>
        </defs>
        <g clip-path="url(#clip_path_1)">
         <path fill="rgb(0,250,240)" stroke="none" d="M 382,437 L 382,394 C 368,392 353,391 337,391 151,391 0,542 0,727 0,841 57,942 144,1003 87,943 53,863 53,774 54,591 201,441 382,437 L 382,437 Z"/>
         <path fill="rgb(0,250,240)" stroke="none" d="M 390,926 C 473,926 541,861 544,779 L 544,47 678,47 C 675,32 673,16 673,0 L 490,0 490,732 C 487,814 420,880 337,880 311,880 287,873 266,862 294,901 339,926 390,926 L 390,926 Z"/>
         <path fill="rgb(0,250,240)" stroke="none" d="M 928,295 L 928,255 C 877,255 830,240 789,213 825,254 874,283 928,295 L 928,295 Z"/>
         <path fill="rgb(255,0,80)" stroke="none" d="M 790,213 C 751,169 727,111 727,47 L 678,47 C 691,116 733,176 790,213 L 790,213 Z"/>
         <path fill="rgb(255,0,80)" stroke="none" d="M 337,573 C 252,573 183,642 183,727 183,786 217,837 266,863 248,837 236,806 236,773 236,688 305,619 390,619 406,619 421,622 436,626 L 436,440 C 421,438 406,437 390,437 388,437 385,437 382,437 L 382,580 C 368,576 353,573 337,573 L 337,573 Z"/>
         <path fill="rgb(255,0,80)" stroke="none" d="M 928,295 L 928,438 C 833,438 746,407 674,356 L 674,727 C 674,912 523,1063 337,1063 265,1063 199,1041 144,1002 206,1068 293,1110 391,1110 576,1110 728,959 728,773 L 728,402 C 800,454 888,484 982,484 L 982,301 C 964,301 946,299 928,295 L 928,295 Z"/>
         <path fill="rgb(0,0,0)" stroke="none" d="M 674,727 L 674,356 C 746,407 834,438 928,438 L 928,295 C 873,283 825,254 789,213 732,176 691,117 678,47 L 544,47 544,779 C 541,861 473,927 391,927 339,927 294,901 266,863 217,837 184,785 184,727 184,642 253,573 338,573 353,573 369,576 383,580 L 383,437 C 201,441 54,591 54,773 54,861 89,942 145,1002 199,1040 266,1063 338,1063 523,1063 674,912 674,727 L 674,727 Z"/>
         <path fill="rgb(0,0,0)" stroke="none" d="M 1370,263 L 1292,263 1292,377 1202,377 1202,455 1292,455 1292,613 1202,626 1202,708 1292,695 1292,831 C 1292,842 1283,851 1273,851 L 1207,851 1207,928 1305,928 C 1341,928 1370,899 1370,863 L 1370,684 1449,672 1449,590 1370,602 1370,455 1449,455 1449,378 1370,378 1370,263 1370,263 Z"/>
         <path fill="rgb(0,0,0)" stroke="none" d="M 1811,263 L 1733,263 1733,669 1477,691 1477,773 1733,751 1733,934 1811,934 1811,744 1890,737 1890,655 1811,662 1811,263 1811,263 Z"/>
         <path fill="rgb(0,0,0)" stroke="none" d="M 1693,353 L 1510,320 1510,403 1693,435 1693,353 1693,353 Z"/>
         <path fill="rgb(0,0,0)" stroke="none" d="M 1693,524 L 1510,491 1510,573 1693,606 1693,524 1693,524 Z"/>
         <path fill="rgb(0,0,0)" stroke="none" d="M 2521,490 L 2533,426 2451,426 2439,490 2224,490 2215,426 2132,426 2142,490 1987,490 1987,565 2673,565 2673,490 2521,490 2521,490 Z"/>
         <path fill="rgb(0,0,0)" stroke="none" d="M 2652,317 L 2391,317 2378,263 2277,263 2290,317 2008,317 2008,392 2652,392 2652,317 2652,317 Z"/>
         <path fill="rgb(0,0,0)" stroke="none" d="M 2546,621 L 2114,621 C 2078,621 2049,650 2049,686 L 2049,864 C 2049,900 2078,929 2114,929 L 2546,929 C 2582,929 2611,900 2611,864 L 2611,686 C 2611,650 2582,621 2546,621 L 2546,621 Z M 2142,692 L 2519,692 C 2530,692 2539,701 2539,711 L 2539,743 2123,743 2123,711 C 2122,700 2131,692 2142,692 L 2142,692 Z M 2519,859 L 2142,859 C 2131,859 2122,850 2122,839 L 2122,807 2538,807 2538,839 C 2538,850 2530,859 2519,859 L 2519,859 Z"/>
        </g>
       </g>
      </g>
     </g>
    </g>
   </g>
  </g>
 </g>
</svg>