<svg width="60" height="60" viewBox="0 0 60 60" fill="none" xmlns="http://www.w3.org/2000/svg">
<path d="M25.3131 25.9738V24.2956C24.7382 24.2189 24.1537 24.1709 23.55 24.1709C16.3543 24.1613 10.5 30.0206 10.5 37.2319C10.5 41.6528 12.7038 45.5653 16.0765 47.9339C13.9014 45.6037 12.5696 42.4679 12.5696 39.0348C12.5696 31.9289 18.261 26.1368 25.3131 25.9738Z" fill="#25F4EE"/>
<path d="M25.626 44.9994C28.8358 44.9994 31.4611 42.4389 31.5761 39.2552L31.5857 10.8028H36.7789C36.6735 10.2179 36.616 9.61373 36.616 9H29.5257L29.5161 37.4523C29.4011 40.6361 26.7758 43.1965 23.5659 43.1965C22.5695 43.1965 21.6305 42.9472 20.7969 42.5061C21.87 44.0116 23.633 44.9994 25.626 44.9994Z" fill="#25F4EE"/>
<path d="M46.4885 20.4601V18.8778C44.5051 18.8778 42.6655 18.2929 41.1133 17.2764C42.493 18.8587 44.3614 20.0094 46.4885 20.4601Z" fill="#25F4EE"/>
<path d="M41.1142 17.2767C39.6004 15.541 38.6901 13.2778 38.6901 10.8037H36.793C37.2816 13.508 38.8913 15.8287 41.1142 17.2767Z" fill="#FE2C55"/>
<path d="M23.5574 31.2573C20.2709 31.2573 17.5977 33.9328 17.5977 37.2221C17.5977 39.514 18.9007 41.5086 20.7979 42.5059C20.0889 41.5278 19.6673 40.3291 19.6673 39.0249C19.6673 35.7357 22.3405 33.0602 25.627 33.0602C26.2402 33.0602 26.8343 33.1657 27.39 33.3383V26.0885C26.8151 26.0118 26.2306 25.9639 25.627 25.9639C25.5216 25.9639 25.4258 25.9735 25.3204 25.9735V31.5354C24.7551 31.3628 24.1706 31.2573 23.5574 31.2573Z" fill="#FE2C55"/>
<path d="M46.4889 20.46V25.974C42.8096 25.974 39.3986 24.7945 36.62 22.7998V37.2322C36.62 44.434 30.7656 50.3028 23.5603 50.3028C20.7817 50.3028 18.1947 49.4206 16.0771 47.9342C18.4629 50.4946 21.8644 52.1057 25.6299 52.1057C32.8257 52.1057 38.6896 46.2464 38.6896 39.035V24.6027C41.4682 26.5973 44.8792 27.7768 48.5585 27.7768V20.6805C47.8399 20.6805 47.1501 20.6038 46.4889 20.46Z" fill="#FE2C55"/>
<path d="M36.6219 37.2327V22.8003C39.4006 24.7949 42.8116 25.9745 46.4909 25.9745V20.4604C44.3638 20.0097 42.4954 18.859 41.1157 17.2767C38.8927 15.8287 37.2926 13.508 36.7848 10.8037H31.5916L31.582 39.2561C31.4671 42.4398 28.8417 45.0002 25.6319 45.0002C23.6389 45.0002 21.8855 44.0125 20.7932 42.5165C18.8961 41.5096 17.593 39.5246 17.593 37.2327C17.593 33.9434 20.2662 31.2679 23.5527 31.2679C24.1659 31.2679 24.76 31.3734 25.3157 31.546V25.9841C18.2637 26.1375 12.5723 31.9296 12.5723 39.0355C12.5723 42.4686 13.9041 45.5948 16.0791 47.9347C18.1966 49.421 20.7836 50.3033 23.5623 50.3033C30.758 50.3033 36.6219 44.4344 36.6219 37.2327Z" fill="white"/>
</svg>
