<svg xmlns="http://www.w3.org/2000/svg" width="80.031" height="23.188" viewBox="0 0 80.031 23.188">
  <metadata><?xpacket begin="﻿" id="W5M0MpCehiHzreSzNTczkc9d"?>
<x:xmpmeta xmlns:x="adobe:ns:meta/" x:xmptk="Adobe XMP Core 5.6-c140 79.160451, 2017/05/06-01:08:21        ">
   <rdf:RDF xmlns:rdf="http://www.w3.org/1999/02/22-rdf-syntax-ns#">
      <rdf:Description rdf:about=""/>
   </rdf:RDF>
</x:xmpmeta>
                                                                                                    
                                                                                                    
                                                                                                    
                                                                                                    
                                                                                                    
                                                                                                    
                                                                                                    
                                                                                                    
                                                                                                    
                                                                                                    
                                                                                                    
                                                                                                    
                                                                                                    
                                                                                                    
                                                                                                    
                                                                                                    
                                                                                                    
                                                                                                    
                                                                                                    
                                                                                                    
                           
<?xpacket end="w"?></metadata>
<defs>
    <style>
      .cls-1 {
        fill: #fff;
        fill-rule: evenodd;
      }
    </style>
  </defs>
  <path id="capcut" class="cls-1" d="M933.164,32l13.554-6.761V21.69l-0.26.13-5.115,2.551-0.1.048c-0.006-.035-0.012-0.071-0.021-0.106a4.237,4.237,0,0,0-4.1-3.308H920.173a4.214,4.214,0,0,0-4.2,4.228v2.252a0.654,0.654,0,0,0,.361.585l7.623,3.8,1.174,0.586-8.8,4.388a0.655,0.655,0,0,0-.361.586v2.251a4.316,4.316,0,0,0,.031.5,4.211,4.211,0,0,0,4.171,3.73h16.947a4.238,4.238,0,0,0,4.1-3.31c0.007-.033.014-0.071,0.02-0.106l5.473,2.729V39.676l-0.26-.13L932.25,32.459l0.152-.076Zm-14.031-6.088V25.234a1.059,1.059,0,0,1,.024-0.22,1.042,1.042,0,0,1,1.016-.829h16.948a1.032,1.032,0,0,1,.782.363,1.045,1.045,0,0,1,.26.685v0.723l-9.473,4.725-0.037-.018Zm19.03,13.768a1.046,1.046,0,0,1-1.042,1.048H920.173a1.045,1.045,0,0,1-1.04-1.048V39l9.519-4.749,0.037-.018,9.2,4.586,0.278,0.139v0.725Zm56.907-4.629V25a2.34,2.34,0,0,0-2.333-2.347h-2.074V20.862h-2.137v1.794h-4.24v2.218h4.24v9.489s0,0.3-.008.691H986.49V26.2h-2.2v8.853h-0.954V37.3H988.3a13.546,13.546,0,0,1-1.532,3.861,26.632,26.632,0,0,1-1.95,2.9h2.659a19.022,19.022,0,0,0,1.064-1.613,16.212,16.212,0,0,0,1.921-5.145H996V35.054H995.07Zm-4.407-10.18h1.712a0.493,0.493,0,0,1,.491.494v9.686h-2.2V24.874Zm-8.627-2.121h-5.619v19.39h6.219V22.753h-0.6Zm-1.6,1.833v6.753h-1.81V24.586h1.81Zm-1.81,15.724V33.557h1.81V40.31h-1.81ZM968.206,20.862H966.07v1.891h-7.078V20.862h-2.136v1.891h-4.175v2.218h19.7V22.753h-4.175V20.862Zm-3.1,6.132v7.049h2.2V26.993h-2.2Zm-4.619,8.668h2.2a8.4,8.4,0,0,0,.467-2.761V28.1a1.9,1.9,0,0,0-1.89-1.9h-8.011v9.46h2.2V34.179h5.392a8.347,8.347,0,0,1-.341,1.408Zm0.467-7.128v0.877h-5.493V28.036h5A0.5,0.5,0,0,1,960.95,28.534Zm-5.493,2.71h5.493v1.1h-5.493v-1.1ZM971.2,35.408a12.722,12.722,0,0,0,.607-4.163V26.2h-2.2v5.046a12.817,12.817,0,0,1-.621,4.219l-0.054.2h2.2Zm-0.443,1.484h-17.5V39.11h2.714a14.93,14.93,0,0,1-.991,2.048,26.628,26.628,0,0,1-1.95,2.9h2.659a19,19,0,0,0,1.064-1.613,16.576,16.576,0,0,0,1.456-3.332h11.4v0.317a13.269,13.269,0,0,1-.594,3.926l-0.17.619h2.2l0.184-.673a13.253,13.253,0,0,0,.581-3.88V37.952A1.056,1.056,0,0,0,970.76,36.892Zm19.683,2.327,2.508,4.836h2.628l-2.747-4.836h-2.389Z" transform="translate(-915.969 -20.875)"/>
</svg>
