<svg id="组_1" data-name="组 1" xmlns="http://www.w3.org/2000/svg" width="150" height="150" viewBox="0 0 150 150">
  <metadata><?xpacket begin="﻿" id="W5M0MpCehiHzreSzNTczkc9d"?>
<x:xmpmeta xmlns:x="adobe:ns:meta/" x:xmptk="Adobe XMP Core 5.6-c140 79.160451, 2017/05/06-01:08:21        ">
   <rdf:RDF xmlns:rdf="http://www.w3.org/1999/02/22-rdf-syntax-ns#">
      <rdf:Description rdf:about=""/>
   </rdf:RDF>
</x:xmpmeta>
                                                                                                    
                                                                                                    
                                                                                                    
                                                                                                    
                                                                                                    
                                                                                                    
                                                                                                    
                                                                                                    
                                                                                                    
                                                                                                    
                                                                                                    
                                                                                                    
                                                                                                    
                                                                                                    
                                                                                                    
                                                                                                    
                                                                                                    
                                                                                                    
                                                                                                    
                                                                                                    
                           
<?xpacket end="w"?></metadata>
<defs>
    <style>
      .cls-1 {
        fill: #fff;
      }

      .cls-2 {
        fill: #070709;
        fill-rule: evenodd;
      }
    </style>
  </defs>
  <rect id="矩形_1" data-name="矩形 1" class="cls-1" width="150" height="150" rx="6" ry="6"/>
  <path id="形状_1" data-name="形状 1" class="cls-2" d="M15,15h3.636v3.636H15V15Zm3.636,0h3.636v3.636H18.637V15h0Zm3.636,0h3.636v3.636H22.273V15h0Zm3.636,0h3.636v3.636H25.909V15h0Zm3.636,0H33.18v3.636H29.546V15h0Zm3.636,0h3.636v3.636H33.182V15h0Zm3.636,0h3.636v3.636H36.818V15h0Zm7.273,0h3.636v3.636H44.091V15h0Zm3.636,0h3.636v3.636H47.727V15h0Zm10.909,0H62.27v3.636H58.637V15h0Zm21.818,0h3.636v3.636H80.455V15h0Zm7.273,0h3.636v3.636H87.727V15h0ZM95,15h3.636v3.636H95V15h0Zm3.636,0h3.637v3.636H98.636V15h0Zm3.637,0h3.636v3.636h-3.636V15Zm7.272,0h3.637v3.636h-3.637V15Zm3.637,0h3.636v3.636H113.18V15Zm3.636,0h3.636v3.636h-3.636V15Zm3.636,0h3.637v3.636h-3.637V15Zm3.637,0h3.636v3.636h-3.636V15Zm3.636,0h3.637v3.636h-3.637V15Zm3.637,0H135v3.636h-3.636V15h0ZM15,18.637h3.636v3.636H15V18.637Zm21.818,0h3.636v3.636H36.818V18.637Zm14.545,0H55v3.636H51.364V18.637h0Zm3.636,0h3.636v3.636H55V18.637h0Zm3.636,0h3.636v3.636H58.637V18.637h0Zm10.909,0H73.18v3.636H69.546V18.637h0Zm10.909,0h3.636v3.636H80.455V18.637h0Zm3.636,0h3.636v3.636H84.091V18.637h0Zm7.273,0H95v3.636H91.364V18.637h0Zm3.636,0h3.636v3.636H95V18.637h0Zm3.636,0h3.637v3.636H98.636V18.637h0Zm10.909,0h3.637v3.636h-3.637V18.637Zm21.819,0H135v3.636h-3.636V18.637h0ZM15,22.273h3.636v3.636H15V22.273Zm7.273,0h3.636v3.636H22.273V22.273Zm3.636,0h3.636v3.636H25.909V22.273Zm3.636,0h3.636v3.636H29.546V22.273h0Zm7.273,0h3.636v3.636H36.818V22.273Zm29.091,0h3.636v3.636H65.909V22.273Zm7.273,0h3.636v3.636H73.182V22.273Zm3.636,0h3.636v3.636H76.818V22.273Zm18.182,0h3.636v3.636H95V22.273Zm3.636,0h3.637v3.636H98.636V22.273Zm3.637,0h3.636v3.636h-3.636V22.273Zm7.272,0h3.637v3.636h-3.637V22.273Zm7.273,0h3.636v3.636h-3.636V22.273Zm3.636,0h3.637v3.636h-3.637V22.273Zm3.637,0h3.636v3.636h-3.636V22.273Zm7.273,0H135v3.636h-3.636V22.273h0ZM15,25.909h3.636v3.636H15V25.909Zm7.273,0h3.636v3.636H22.273V25.909Zm3.636,0h3.636v3.636H25.909V25.909Zm3.636,0h3.636v3.636H29.546V25.909h0Zm7.273,0h3.636v3.636H36.818V25.909Zm7.273,0h3.636v3.636H44.091V25.909Zm3.636,0h3.636v3.636H47.727V25.909Zm3.636,0H55v3.636H51.364V25.909h0Zm3.636,0h3.636v3.636H55V25.909h0Zm7.273,0h3.636v3.636H62.273V25.909h0Zm3.636,0h3.636v3.636H65.909V25.909h0Zm3.636,0H73.18v3.636H69.546V25.909h0Zm3.636,0h3.636v3.636H73.182V25.909h0Zm10.909,0h3.636v3.636H84.091V25.909h0Zm10.909,0h3.636v3.636H95V25.909h0Zm7.273,0h3.636v3.636h-3.636V25.909Zm7.272,0h3.637v3.636h-3.637V25.909Zm7.273,0h3.636v3.636h-3.636V25.909Zm3.636,0h3.637v3.636h-3.637V25.909Zm3.637,0h3.636v3.636h-3.636V25.909Zm7.273,0H135v3.636h-3.636V25.909h0ZM15,29.546h3.636v3.636H15V29.546Zm7.273,0h3.636v3.636H22.273V29.546Zm3.636,0h3.636v3.636H25.909V29.546Zm3.636,0h3.636v3.636H29.546V29.546h0Zm7.273,0h3.636v3.636H36.818V29.546Zm10.909,0h3.636v3.636H47.727V29.546Zm3.636,0H55v3.636H51.364V29.546h0Zm7.273,0h3.636v3.636H58.637V29.546h0Zm3.636,0h3.636v3.636H62.273V29.546h0Zm7.273,0h3.636v3.636H69.546V29.546h0Zm10.909,0H84.09v3.636H80.455V29.546h0Zm3.636,0h3.636v3.636H84.091V29.546h0Zm7.273,0H95v3.636H91.364V29.546h0Zm3.636,0h3.636v3.636H95V29.546h0Zm7.273,0h3.636v3.636h-3.636V29.546Zm7.272,0h3.637v3.636h-3.637V29.546Zm7.273,0h3.636v3.636h-3.636V29.546Zm3.636,0h3.637v3.636h-3.637V29.546Zm3.637,0h3.636v3.636H124.09V29.546Zm7.273,0H135v3.636h-3.636V29.546h0ZM15,33.182h3.636v3.636H15V33.182Zm21.818,0h3.636v3.636H36.818V33.182Zm14.545,0H55v3.636H51.364V33.182h0Zm3.636,0h3.636v3.636H55V33.182h0Zm3.636,0h3.636v3.636H58.637V33.182h0Zm3.636,0h3.636v3.636H62.273V33.182h0Zm3.636,0h3.636v3.636H65.909V33.182h0Zm7.273,0h3.636v3.636H73.182V33.182h0Zm7.273,0h3.636v3.636H80.455V33.182h0Zm3.636,0h3.636v3.636H84.091V33.182h0Zm3.636,0h3.636v3.636H87.727V33.182h0Zm7.273,0h3.636v3.636H95V33.182h0Zm3.636,0h3.637v3.636H98.636V33.182h0Zm3.637,0h3.636v3.636h-3.636V33.182Zm7.272,0h3.637v3.636h-3.637V33.182Zm21.819,0H135v3.636h-3.636V33.182h0ZM15,36.818h3.636v3.636H15V36.818Zm3.636,0h3.636v3.636H18.637V36.818h0Zm3.636,0h3.636v3.636H22.273V36.818h0Zm3.636,0h3.636v3.636H25.909V36.818h0Zm3.636,0H33.18v3.636H29.546V36.818h0Zm3.636,0h3.636v3.636H33.182V36.818h0Zm3.636,0h3.636v3.636H36.818V36.818h0Zm7.273,0h3.636v3.636H44.091V36.818h0Zm7.273,0H55v3.636H51.364V36.818h0Zm7.273,0h3.636v3.636H58.637V36.818h0Zm7.273,0h3.636v3.636H65.909V36.818h0Zm7.273,0h3.636v3.636H73.182V36.818h0Zm7.273,0H84.09v3.636H80.455V36.818h0Zm7.273,0h3.636v3.636H87.727V36.818Zm7.273,0h3.636v3.636H95V36.818Zm7.273,0h3.636v3.636h-3.636V36.818Zm7.272,0h3.637v3.636h-3.637V36.818Zm3.637,0h3.636v3.636h-3.636V36.818Zm3.636,0h3.636v3.636h-3.636V36.818Zm3.636,0h3.637v3.636h-3.637V36.818Zm3.637,0h3.636v3.636h-3.636V36.818Zm3.636,0h3.637v3.636h-3.637V36.818Zm3.637,0H135v3.636h-3.636V36.818h0ZM69.546,40.455h3.636v3.636H69.546V40.455Zm3.636,0h3.636v3.636H73.182V40.455Zm7.273,0h3.636v3.636H80.455V40.455Zm7.273,0h3.636v3.636H87.727V40.455h0Zm3.636,0H95v3.636H91.364V40.455Zm3.636,0h3.636v3.636H95V40.455Zm3.636,0h3.637v3.636H98.636V40.455ZM22.273,44.091h3.636v3.636H22.273V44.091Zm7.273,0h3.636v3.636H29.546V44.091Zm3.636,0h3.636v3.636H33.182V44.091Zm3.636,0h3.636v3.636H36.818V44.091Zm7.273,0h3.636v3.636H44.091V44.091Zm7.273,0H55v3.636H51.364V44.091Zm10.909,0h3.636v3.636H62.273V44.091Zm3.636,0h3.636v3.636H65.909V44.091Zm3.636,0h3.636v3.636H69.546V44.091h0Zm7.273,0h3.636v3.636H76.818V44.091Zm3.636,0H84.09v3.636H80.455V44.091h0Zm3.636,0h3.636v3.636H84.091V44.091h0Zm3.636,0h3.636v3.636H87.727V44.091h0Zm3.636,0H95v3.636H91.364V44.091h0Zm10.909,0h3.636v3.636h-3.636V44.091Zm3.636,0h3.636v3.636h-3.636V44.091Zm14.545,0h3.637v3.636h-3.637V44.091Zm10.91,0H135v3.636h-3.636V44.091h0ZM15,47.727h3.636v3.636H15V47.727Zm10.909,0h3.636v3.636H25.909V47.727Zm3.636,0h3.636v3.636H29.546V47.727h0Zm10.909,0H44.09v3.636H40.455V47.727h0Zm7.273,0h3.636v3.636H47.727V47.727Zm3.636,0H55v3.636H51.364V47.727h0Zm3.636,0h3.636v3.636H55V47.727h0Zm3.636,0h3.636v3.636H58.637V47.727h0Zm3.636,0h3.636v3.636H62.273V47.727h0Zm3.636,0h3.636v3.636H65.909V47.727h0Zm10.909,0h3.636v3.636H76.818V47.727h0Zm3.636,0h3.636v3.636H80.455V47.727h0Zm21.819,0h3.636v3.636h-3.636V47.727Zm7.272,0h3.637v3.636h-3.637V47.727Zm18.182,0h3.637v3.636h-3.637V47.727Zm3.637,0H135v3.636h-3.636V47.727h0ZM15,51.364h3.636V55H15V51.364Zm7.273,0h3.636V55H22.273V51.364Zm3.636,0h3.636V55H25.909V51.364Zm10.909,0h3.636V55H36.818V51.364Zm3.636,0H44.09V55H40.455V51.364h0Zm14.545,0h3.636V55H55V51.364h0Zm3.636,0h3.636V55H58.637V51.364h0Zm18.182,0h3.636V55H76.818V51.364h0Zm3.636,0h3.636V55H80.455V51.364h0Zm7.273,0h3.636V55H87.727V51.364h0Zm3.636,0H95V55H91.364V51.364h0Zm14.545,0h3.636V55h-3.636V51.364Zm10.909,0h3.636V55h-3.636V51.364Zm7.273,0h3.636V55h-3.636V51.364Zm3.636,0h3.637V55h-3.637V51.364Zm3.637,0H135V55h-3.636V51.364h0ZM18.637,55h3.636v3.636H18.637V55Zm7.273,0h3.636v3.636H25.909V55h0Zm3.636,0h3.636v3.636H29.546V55Zm3.636,0h3.636v3.636H33.182V55Zm7.273,0h3.636v3.636H40.455V55Zm3.636,0h3.636v3.636H44.091V55Zm3.636,0h3.636v3.636H47.727V55Zm3.636,0H55v3.636H51.364V55h0ZM55,55h3.636v3.636H55V55h0Zm3.636,0h3.636v3.636H58.637V55h0Zm3.636,0h3.636v3.636H62.273V55h0Zm3.636,0h3.636v3.636H65.909V55h0Zm14.545,0h3.636v3.636H80.455V55h0Zm25.455,0h3.636v3.636h-3.636V55Zm3.636,0h3.637v3.636h-3.637V55Zm18.182,0h3.637v3.636h-3.637V55Zm3.637,0H135v3.636h-3.636V55h0ZM25.909,58.636h3.636v3.636H25.909V58.636Zm7.273,0h3.636v3.636H33.182V58.636Zm3.636,0h3.636v3.636H36.818V58.636Zm7.273,0h3.636v3.636H44.091V58.636Zm7.273,0H55v3.636H51.364V58.636Zm7.273,0h3.636v3.636H58.637V58.636Zm3.636,0h3.636v3.636H62.273V58.636Zm3.636,0h3.636v3.636H65.909V58.636Zm3.636,0h3.636v3.636H69.546V58.636h0Zm7.273,0h3.636v3.636H76.818V58.636Zm3.636,0H84.09v3.636H80.455V58.636h0Zm25.455,0h3.636v3.636h-3.636V58.636Zm3.636,0h3.637v3.636h-3.637V58.636Zm3.637,0h3.636v3.636h-3.636V58.636Zm3.636,0h3.636v3.636h-3.636V58.636ZM15,62.273h3.636v3.636H15V62.273Zm3.636,0h3.636v3.636H18.637V62.273h0Zm10.909,0h3.636v3.636H29.546V62.273h0Zm14.545,0h3.636v3.636H44.091V62.273h0Zm14.545,0h3.636v3.636H58.637V62.273h0Zm7.273,0h3.636v3.636H65.909V62.273h0Zm3.636,0H73.18v3.636H69.546V62.273h0Zm3.636,0h3.636v3.636H73.182V62.273h0Zm10.909,0h3.636v3.636H84.091V62.273h0Zm3.636,0h3.636v3.636H87.727V62.273h0Zm14.546,0h3.636v3.636h-3.636V62.273Zm3.636,0h3.636v3.636h-3.636V62.273Zm3.636,0h3.637v3.636h-3.637V62.273Zm18.182,0h3.637v3.636h-3.637V62.273Zm3.637,0H135v3.636h-3.636V62.273h0ZM18.637,65.909h3.636v3.636H18.637V65.909Zm7.273,0h3.636v3.636H25.909V65.909h0Zm3.636,0h3.636v3.636H29.546V65.909Zm3.636,0h3.636v3.636H33.182V65.909Zm3.636,0h3.636v3.636H36.818V65.909Zm3.636,0H44.09v3.636H40.455V65.909h0Zm10.909,0H55v3.636H51.364V65.909h0Zm3.636,0h3.636v3.636H55V65.909h0Zm29.091,0h3.636v3.636H84.091V65.909h0Zm3.636,0h3.636v3.636H87.727V65.909h0Zm3.636,0H95v3.636H91.364V65.909h0Zm10.909,0h3.636v3.636h-3.636V65.909Zm3.636,0h3.636v3.636h-3.636V65.909Zm10.909,0h3.636v3.636h-3.636V65.909Zm3.636,0h3.637v3.636h-3.637V65.909Zm3.637,0h3.636v3.636h-3.636V65.909Zm3.636,0h3.637v3.636h-3.637V65.909Zm3.637,0H135v3.636h-3.636V65.909h0ZM18.637,69.546h3.636v3.636H18.637V69.546Zm3.636,0h3.636v3.636H22.273V69.546Zm29.091,0H55v3.636H51.364V69.546Zm3.636,0h3.636v3.636H55V69.546Zm3.636,0h3.636v3.636H58.637V69.546h0Zm3.636,0h3.636v3.636H62.273V69.546h0Zm3.636,0h3.636v3.636H65.909V69.546h0Zm3.636,0H73.18v3.636H69.546V69.546h0Zm3.636,0h3.636v3.636H73.182V69.546h0Zm3.636,0h3.636v3.636H76.818V69.546h0Zm3.636,0h3.636v3.636H80.455V69.546h0Zm3.636,0h3.636v3.636H84.091V69.546h0Zm7.273,0H95v3.636H91.364V69.546h0Zm3.636,0h3.636v3.636H95V69.546h0Zm7.273,0h3.636v3.636H102.27V69.546Zm7.272,0h3.637v3.636h-3.637V69.546Zm3.637,0h3.636v3.636h-3.636V69.546Zm3.636,0h3.636v3.636h-3.636V69.546Zm10.909,0h3.637v3.636h-3.637V69.546Zm3.637,0H135v3.636h-3.636V69.546h0ZM15,73.182h3.636v3.636H15V73.182Zm7.273,0h3.636v3.636H22.273V73.182Zm3.636,0h3.636v3.636H25.909V73.182Zm3.636,0h3.636v3.636H29.546V73.182h0Zm7.273,0h3.636v3.636H36.818V73.182Zm3.636,0H44.09v3.636H40.455V73.182h0Zm7.273,0h3.636v3.636H47.727V73.182Zm10.909,0h3.636v3.636H58.637V73.182h0Zm3.636,0h3.636v3.636H62.273V73.182h0Zm3.636,0h3.636v3.636H65.909V73.182h0Zm14.545,0h3.636v3.636H80.455V73.182h0Zm3.636,0h3.636v3.636H84.091V73.182h0Zm7.273,0H95v3.636H91.364V73.182h0Zm3.636,0h3.636v3.636H95V73.182h0Zm3.636,0h3.637v3.636H98.636V73.182h0Zm10.909,0h3.637v3.636h-3.637V73.182Zm10.909,0h3.637v3.636h-3.637V73.182Zm7.273,0h3.637v3.636h-3.637V73.182ZM15,76.818h3.636v3.636H15V76.818Zm3.636,0h3.636v3.636H18.637V76.818h0Zm7.273,0h3.636v3.636H25.909V76.818Zm25.454,0H55v3.636H51.364V76.818h0Zm18.182,0h3.636v3.636H69.546V76.818h0Zm7.273,0h3.636v3.636H76.818V76.818Zm7.273,0h3.636v3.636H84.091V76.818Zm3.636,0h3.636v3.636H87.727V76.818Zm18.182,0h3.636v3.636h-3.636V76.818Zm3.636,0h3.637v3.636h-3.637V76.818Zm10.909,0h3.637v3.636h-3.637V76.818Zm3.637,0h3.636v3.636h-3.636V76.818ZM15,80.455h3.636v3.636H15V80.455Zm7.273,0h3.636v3.636H22.273V80.455Zm7.273,0h3.636v3.636H29.546V80.455Zm3.636,0h3.636v3.636H33.182V80.455Zm3.636,0h3.636v3.636H36.818V80.455Zm3.636,0H44.09v3.636H40.455V80.455h0Zm7.273,0h3.636v3.636H47.727V80.455Zm3.636,0H55v3.636H51.364V80.455h0Zm3.636,0h3.636v3.636H55V80.455h0Zm3.636,0h3.636v3.636H58.637V80.455h0Zm10.909,0H73.18v3.636H69.546V80.455h0Zm3.636,0h3.636v3.636H73.182V80.455h0Zm7.273,0h3.636v3.636H80.455V80.455h0Zm7.273,0h3.636v3.636H87.727V80.455h0Zm3.636,0H95v3.636H91.364V80.455h0Zm14.545,0h3.636v3.636h-3.636V80.455Zm3.636,0h3.637v3.636h-3.637V80.455Zm3.637,0h3.636v3.636H113.18V80.455Zm3.636,0h3.636v3.636h-3.636V80.455Zm7.273,0h3.636v3.636h-3.636V80.455Zm3.636,0h3.637v3.636h-3.637V80.455Zm3.637,0H135v3.636h-3.636V80.455h0ZM15,84.091h3.636v3.636H15V84.091Zm7.273,0h3.636v3.636H22.273V84.091Zm7.273,0h3.636v3.636H29.546V84.091Zm14.545,0h3.636v3.636H44.091V84.091Zm7.273,0H55v3.636H51.364V84.091Zm18.182,0h3.636v3.636H69.546V84.091Zm7.273,0h3.636v3.636H76.818V84.091h0Zm14.545,0H95v3.636H91.364V84.091Zm3.636,0h3.636v3.636H95V84.091Zm10.909,0h3.636v3.636h-3.636V84.091Zm7.273,0h3.636v3.636h-3.636V84.091Zm18.182,0H135v3.636h-3.636V84.091ZM15,87.727h3.636v3.636H15V87.727Zm7.273,0h3.636v3.636H22.273V87.727Zm7.273,0h3.636v3.636H29.546V87.727Zm3.636,0h3.636v3.636H33.182V87.727Zm3.636,0h3.636v3.636H36.818V87.727Zm18.182,0h3.636v3.636H55V87.727Zm7.273,0h3.636v3.636H62.273V87.727Zm3.636,0h3.636v3.636H65.909V87.727Zm3.636,0h3.636v3.636H69.546V87.727h0Zm18.182,0h3.636v3.636H87.727V87.727Zm3.636,0H95v3.636H91.364V87.727h0Zm10.909,0h3.636v3.636h-3.636V87.727Zm7.272,0h3.637v3.636h-3.637V87.727Zm10.909,0h3.637v3.636h-3.637V87.727Zm7.273,0h3.637v3.636h-3.637V87.727ZM18.637,91.364h3.636V95H18.637V91.364Zm3.636,0h3.636V95H22.273V91.364Zm3.636,0h3.636V95H25.909V91.364Zm3.636,0h3.636V95H29.546V91.364h0Zm14.545,0h3.636V95H44.091V91.364h0Zm7.273,0H55V95H51.364V91.364h0Zm3.636,0h3.636V95H55V91.364h0Zm3.636,0h3.636V95H58.637V91.364h0Zm3.636,0h3.636V95H62.273V91.364h0Zm3.636,0h3.636V95H65.909V91.364h0Zm7.273,0h3.636V95H73.182V91.364h0Zm3.636,0h3.636V95H76.818V91.364h0Zm3.636,0h3.636V95H80.455V91.364h0Zm3.636,0h3.636V95H84.091V91.364h0Zm10.909,0h3.636V95H95V91.364h0Zm3.636,0h3.637V95H98.636V91.364h0Zm3.637,0h3.636V95H102.27V91.364Zm3.636,0h3.636V95h-3.636V91.364Zm18.182,0h3.636V95h-3.636V91.364Zm7.273,0H135V95h-3.636V91.364h0ZM15,95h3.636v3.636H15V95Zm18.182,0h3.636v3.636H33.182V95Zm3.636,0h3.636v3.636H36.818V95Zm7.273,0h3.636v3.636H44.091V95Zm7.273,0H55v3.636H51.364V95ZM55,95h3.636v3.636H55V95Zm10.909,0h3.636v3.636H65.909V95Zm10.909,0h3.636v3.636H76.818V95Zm3.636,0H84.09v3.636H80.455V95h0Zm7.273,0h3.636v3.636H87.727V95Zm10.909,0h3.637v3.636H98.636V95Zm3.637,0h3.636v3.636h-3.636V95Zm7.272,0h3.637v3.636h-3.637V95Zm3.637,0h3.636v3.636h-3.636V95Zm3.636,0h3.636v3.636h-3.636V95Zm7.273,0h3.636v3.636h-3.636V95Zm3.636,0h3.637v3.636h-3.637V95Zm3.637,0H135v3.636h-3.636V95ZM18.637,98.636h3.636v3.637H18.637V98.636Zm3.636,0h3.636v3.637H22.273V98.636Zm10.909,0h3.636v3.637H33.182V98.636Zm7.273,0h3.636v3.637H40.455V98.636Zm18.182,0h3.636v3.637H58.637V98.636Zm3.636,0h3.636v3.637H62.273V98.636Zm18.182,0h3.636v3.637H80.455V98.636Zm3.636,0h3.636v3.637H84.091V98.636Zm3.636,0h3.636v3.637H87.727V98.636Zm3.636,0H95v3.637H91.364V98.636h0Zm3.636,0h3.636v3.637H95V98.636h0Zm7.273,0h3.636v3.637h-3.636V98.636Zm3.636,0h3.636v3.637h-3.636V98.636Zm7.273,0h3.636v3.637h-3.636V98.636Zm3.636,0h3.636v3.637h-3.636V98.636ZM15,102.273h3.636v3.636H15v-3.636Zm7.273,0h3.636v3.636H22.273v-3.636Zm3.636,0h3.636v3.636H25.909v-3.636Zm3.636,0h3.636v3.636H29.546v-3.636h0Zm3.636,0h3.636v3.636H33.182v-3.636h0Zm3.636,0h3.636v3.636H36.818v-3.636h0Zm14.545,0H55v3.636H51.364v-3.636h0Zm7.273,0h3.636v3.636H58.637v-3.636h0Zm7.273,0h3.636v3.636H65.909v-3.636h0Zm3.636,0H73.18v3.636H69.546v-3.636h0Zm3.636,0h3.636v3.636H73.182v-3.636h0Zm3.636,0h3.636v3.636H76.818v-3.636h0Zm14.545,0H95v3.636H91.364v-3.636h0Zm3.636,0h3.636v3.636H95v-3.636h0Zm3.636,0h3.637v3.636H98.636v-3.636h0Zm3.637,0h3.636v3.636H102.27v-3.636Zm3.636,0h3.636v3.636h-3.636v-3.636Zm3.636,0h3.637v3.636h-3.637v-3.636Zm3.637,0h3.636v3.636h-3.636v-3.636Zm3.636,0h3.636v3.636h-3.636v-3.636Zm10.909,0h3.637v3.636h-3.637v-3.636Zm3.637,0H135v3.636h-3.636v-3.636h0Zm-87.273,3.636h3.636v3.636H44.091v-3.636h0Zm3.636,0H51.36v3.636H47.727v-3.636h0Zm3.636,0H55v3.636H51.364v-3.636h0Zm3.636,0h3.636v3.636H55v-3.636h0Zm7.273,0h3.636v3.636H62.273v-3.636h0Zm3.636,0h3.636v3.636H65.909v-3.636h0Zm3.636,0h3.636v3.636H69.546v-3.636H69.541Zm18.182,0h3.636v3.636H87.727v-3.636h0Zm3.636,0H95v3.636H91.364v-3.636H91.359Zm7.273,0h3.637v3.636H98.636v-3.636h0Zm3.637,0h3.636v3.636h-3.636v-3.636Zm14.545,0h3.636v3.636h-3.636v-3.636Zm3.636,0h3.637v3.636H120.45v-3.636Zm3.637,0h3.636v3.636h-3.636v-3.636Zm7.273,0H135v3.636h-3.636v-3.636h0ZM15,109.545h3.636v3.637H15v-3.637Zm3.636,0h3.636v3.637H18.637v-3.637h0Zm3.636,0h3.636v3.637H22.273v-3.637h0Zm3.636,0h3.636v3.637H25.909v-3.637h0Zm3.636,0H33.18v3.637H29.546v-3.637h0Zm3.636,0h3.636v3.637H33.182v-3.637h0Zm3.636,0h3.636v3.637H36.818v-3.637h0Zm18.182,0h3.636v3.637H55v-3.637h0Zm25.454,0h3.636v3.637H80.455v-3.637h0Zm7.273,0h3.636v3.637H87.727v-3.637h0Zm7.273,0h3.636v3.637H95v-3.637h0Zm3.636,0h3.637v3.637H98.636v-3.637h0Zm3.637,0h3.636v3.637h-3.636v-3.637Zm7.272,0h3.637v3.637h-3.637v-3.637Zm7.273,0h3.636v3.637h-3.636v-3.637Zm3.636,0h3.637v3.637h-3.637v-3.637Zm3.637,0h3.636v3.637h-3.636v-3.637Zm3.636,0h3.637v3.637h-3.637v-3.637Zm3.637,0H135v3.637h-3.636v-3.637h0ZM15,113.182h3.636v3.636H15v-3.636Zm21.818,0h3.636v3.636H36.818v-3.636Zm7.273,0h3.636v3.636H44.091v-3.636Zm7.273,0H55v3.636H51.364v-3.636Zm10.909,0h3.636v3.636H62.273v-3.636Zm7.273,0h3.636v3.636H69.546v-3.636Zm7.273,0h3.636v3.636H76.818v-3.636h0Zm14.545,0H95v3.636H91.364v-3.636Zm3.636,0h3.636v3.636H95v-3.636Zm7.273,0h3.636v3.636h-3.636v-3.636Zm14.545,0h3.636v3.636h-3.636v-3.636Zm14.546,0H135v3.636h-3.636v-3.636ZM15,116.818h3.636v3.636H15v-3.636Zm7.273,0h3.636v3.636H22.273v-3.636Zm3.636,0h3.636v3.636H25.909v-3.636Zm3.636,0h3.636v3.636H29.546v-3.636h0Zm7.273,0h3.636v3.636H36.818v-3.636Zm7.273,0h3.636v3.636H44.091v-3.636Zm3.636,0h3.636v3.636H47.727v-3.636Zm3.636,0H55v3.636H51.364v-3.636h0Zm3.636,0h3.636v3.636H55v-3.636h0Zm3.636,0h3.636v3.636H58.637v-3.636h0Zm3.636,0h3.636v3.636H62.273v-3.636h0Zm3.636,0h3.636v3.636H65.909v-3.636h0Zm7.273,0h3.636v3.636H73.182v-3.636h0Zm7.273,0h3.636v3.636H80.455v-3.636h0Zm14.546,0h3.636v3.636H95v-3.636h0Zm7.273,0h3.636v3.636h-3.636v-3.636Zm3.636,0h3.636v3.636h-3.636v-3.636Zm3.636,0h3.637v3.636h-3.637v-3.636Zm3.637,0h3.636v3.636h-3.636v-3.636Zm3.636,0h3.636v3.636h-3.636v-3.636Zm10.909,0h3.637v3.636h-3.637v-3.636ZM15,120.454h3.636v3.637H15v-3.637Zm7.273,0h3.636v3.637H22.273v-3.637Zm3.636,0h3.636v3.637H25.909v-3.637Zm3.636,0h3.636v3.637H29.546v-3.637h0Zm7.273,0h3.636v3.637H36.818v-3.637Zm10.909,0h3.636v3.637H47.727v-3.637Zm3.636,0H55v3.637H51.364v-3.637h0Zm3.636,0h3.636v3.637H55v-3.637h0Zm3.636,0h3.636v3.637H58.637v-3.637h0Zm10.909,0H73.18v3.637H69.546v-3.637h0Zm10.909,0h3.636v3.637H80.455v-3.637h0Zm3.636,0h3.636v3.637H84.091v-3.637h0Zm10.909,0h3.636v3.637H95v-3.637h0Zm3.636,0h3.637v3.637H98.636v-3.637h0Zm3.637,0h3.636v3.637h-3.636v-3.637Zm14.545,0h3.636v3.637h-3.636v-3.637ZM15,124.091h3.636v3.636H15v-3.636Zm7.273,0h3.636v3.636H22.273v-3.636Zm3.636,0h3.636v3.636H25.909v-3.636Zm3.636,0h3.636v3.636H29.546v-3.636h0Zm7.273,0h3.636v3.636H36.818v-3.636Zm7.273,0h3.636v3.636H44.091v-3.636Zm3.636,0h3.636v3.636H47.727v-3.636Zm14.545,0h3.636v3.636H62.273v-3.636h0Zm14.545,0h3.636v3.636H76.818v-3.636h0Zm7.273,0h3.636v3.636H84.091v-3.636h0Zm10.909,0h3.636v3.636H95v-3.636h0Zm3.636,0h3.637v3.636H98.636v-3.636h0Zm7.273,0h3.636v3.636h-3.636v-3.636Zm7.273,0h3.636v3.636h-3.636v-3.636Zm3.636,0h3.636v3.636h-3.636v-3.636Zm3.636,0h3.637v3.636h-3.637v-3.636Zm3.637,0h3.636v3.636H124.09v-3.636Zm7.273,0H135v3.636h-3.636v-3.636h0ZM15,127.727h3.636v3.636H15v-3.636Zm21.818,0h3.636v3.636H36.818v-3.636Zm14.545,0H55v3.636H51.364v-3.636h0Zm10.909,0h3.636v3.636H62.273v-3.636h0Zm7.273,0h3.636v3.636H69.546v-3.636h0Zm10.909,0H84.09v3.636H80.455v-3.636h0Zm10.909,0H95v3.636H91.364v-3.636h0Zm7.273,0h3.637v3.636H98.636v-3.636Zm3.637,0h3.636v3.636h-3.636v-3.636Zm3.636,0h3.636v3.636h-3.636v-3.636Zm3.636,0h3.637v3.636h-3.637v-3.636Zm3.637,0h3.636v3.636h-3.636v-3.636Zm7.272,0h3.637v3.636h-3.637v-3.636Zm7.273,0h3.637v3.636h-3.637v-3.636ZM15,131.363h3.636V135H15v-3.637Zm3.636,0h3.636V135H18.637v-3.637h0Zm3.636,0h3.636V135H22.273v-3.637h0Zm3.636,0h3.636V135H25.909v-3.637h0Zm3.636,0H33.18V135H29.546v-3.637h0Zm3.636,0h3.636V135H33.182v-3.637h0Zm3.636,0h3.636V135H36.818v-3.637h0Zm10.909,0h3.636V135H47.727v-3.637h0Zm3.636,0H55V135H51.364v-3.637h0Zm3.636,0h3.636V135H55v-3.637h0Zm3.636,0h3.636V135H58.637v-3.637h0Zm3.636,0h3.636V135H62.273v-3.637h0Zm3.636,0h3.636V135H65.909v-3.637h0Zm3.636,0h3.636V135H69.546v-3.637H69.541Zm7.273,0H80.45V135H76.818v-3.637h0Zm10.909,0h3.636V135H87.727v-3.637h0Zm7.273,0h3.636V135H95v-3.637h0Zm7.273,0h3.636V135h-3.636v-3.637Zm3.636,0h3.636V135h-3.636v-3.637Zm7.273,0h3.636V135h-3.636v-3.637Zm3.636,0h3.636V135h-3.636v-3.637Zm3.636,0h3.637V135H120.45v-3.637Zm7.273,0h3.637V135h-3.637v-3.637Zm3.637,0H135V135h-3.636v-3.637h0Z"/>
</svg>
