<svg id="组_1" data-name="组 1" xmlns="http://www.w3.org/2000/svg" width="150" height="150" viewBox="0 0 150 150">
  <metadata><?xpacket begin="﻿" id="W5M0MpCehiHzreSzNTczkc9d"?>
<x:xmpmeta xmlns:x="adobe:ns:meta/" x:xmptk="Adobe XMP Core 5.6-c140 79.160451, 2017/05/06-01:08:21        ">
   <rdf:RDF xmlns:rdf="http://www.w3.org/1999/02/22-rdf-syntax-ns#">
      <rdf:Description rdf:about=""/>
   </rdf:RDF>
</x:xmpmeta>
                                                                                                    
                                                                                                    
                                                                                                    
                                                                                                    
                                                                                                    
                                                                                                    
                                                                                                    
                                                                                                    
                                                                                                    
                                                                                                    
                                                                                                    
                                                                                                    
                                                                                                    
                                                                                                    
                                                                                                    
                                                                                                    
                                                                                                    
                                                                                                    
                                                                                                    
                                                                                                    
                           
<?xpacket end="w"?></metadata>
<defs>
    <style>
      .cls-1 {
        fill: #fff;
      }

      .cls-2 {
        fill: #070709;
        fill-rule: evenodd;
      }
    </style>
  </defs>
  <rect id="矩形_1" data-name="矩形 1" class="cls-1" width="150" height="150" rx="6" ry="6"/>
  <path id="形状_2" data-name="形状 2" class="cls-2" d="M15.006,15.006h3.636v3.636H15.006V15.006Zm3.636,0h3.636v3.636H18.642V15.006Zm3.636,0h3.636v3.636H22.278V15.006Zm3.636,0H29.55v3.636H25.914V15.006Zm3.636,0h3.636v3.636H29.55V15.006Zm3.636,0h3.636v3.636H33.186V15.006Zm3.636,0h3.636v3.636H36.822V15.006Zm7.272,0H47.73v3.636H44.094V15.006Zm3.636,0h3.636v3.636H47.73V15.006Zm10.908,0h3.636v3.636H58.638V15.006Zm21.816,0H84.09v3.636H80.454V15.006Zm7.272,0h3.636v3.636H87.726V15.006Zm7.272,0h3.636v3.636H95V15.006Zm3.636,0h3.636v3.636H98.634V15.006Zm3.636,0h3.636v3.636H102.27V15.006Zm7.272,0h3.636v3.636h-3.636V15.006Zm3.636,0h3.636v3.636h-3.636V15.006Zm3.636,0h3.636v3.636h-3.636V15.006Zm3.636,0h3.636v3.636H120.45V15.006Zm3.636,0h3.636v3.636h-3.636V15.006Zm3.636,0h3.636v3.636h-3.636V15.006Zm3.636,0h3.636v3.636h-3.636V15.006ZM15.006,18.642h3.636v3.636H15.006V18.642Zm21.816,0h3.636v3.636H36.822V18.642Zm14.544,0H55v3.636H51.366V18.642Zm3.636,0h3.636v3.636H55V18.642Zm3.636,0h3.636v3.636H58.638V18.642Zm10.908,0h3.636v3.636H69.546V18.642Zm10.908,0H84.09v3.636H80.454V18.642Zm3.636,0h3.636v3.636H84.09V18.642Zm7.272,0H95v3.636H91.362V18.642Zm3.636,0h3.636v3.636H95V18.642Zm3.636,0h3.636v3.636H98.634V18.642Zm10.908,0h3.636v3.636h-3.636V18.642Zm21.816,0h3.636v3.636h-3.636V18.642ZM15.006,22.278h3.636v3.636H15.006V22.278Zm7.272,0h3.636v3.636H22.278V22.278Zm3.636,0H29.55v3.636H25.914V22.278Zm3.636,0h3.636v3.636H29.55V22.278Zm7.272,0h3.636v3.636H36.822V22.278Zm29.088,0h3.636v3.636H65.91V22.278Zm7.272,0h3.636v3.636H73.182V22.278Zm3.636,0h3.636v3.636H76.818V22.278Zm18.18,0h3.636v3.636H95V22.278Zm3.636,0h3.636v3.636H98.634V22.278Zm3.636,0h3.636v3.636H102.27V22.278Zm7.272,0h3.636v3.636h-3.636V22.278Zm7.272,0h3.636v3.636h-3.636V22.278Zm3.636,0h3.636v3.636H120.45V22.278Zm3.636,0h3.636v3.636h-3.636V22.278Zm7.272,0h3.636v3.636h-3.636V22.278ZM15.006,25.914h3.636V29.55H15.006V25.914Zm7.272,0h3.636V29.55H22.278V25.914Zm3.636,0H29.55V29.55H25.914V25.914Zm3.636,0h3.636V29.55H29.55V25.914Zm7.272,0h3.636V29.55H36.822V25.914Zm7.272,0H47.73V29.55H44.094V25.914Zm3.636,0h3.636V29.55H47.73V25.914Zm3.636,0H55V29.55H51.366V25.914Zm3.636,0h3.636V29.55H55V25.914Zm3.636,0h3.636V29.55H58.638V25.914Zm3.636,0H65.91V29.55H62.274V25.914Zm3.636,0h3.636V29.55H65.91V25.914Zm3.636,0h3.636V29.55H69.546V25.914Zm3.636,0h3.636V29.55H73.182V25.914Zm10.908,0h3.636V29.55H84.09V25.914Zm10.908,0h3.636V29.55H95V25.914Zm7.272,0h3.636V29.55H102.27V25.914Zm7.272,0h3.636V29.55h-3.636V25.914Zm7.272,0h3.636V29.55h-3.636V25.914Zm3.636,0h3.636V29.55H120.45V25.914Zm3.636,0h3.636V29.55h-3.636V25.914Zm7.272,0h3.636V29.55h-3.636V25.914ZM15.006,29.55h3.636v3.636H15.006V29.55Zm7.272,0h3.636v3.636H22.278V29.55Zm3.636,0H29.55v3.636H25.914V29.55Zm3.636,0h3.636v3.636H29.55V29.55Zm7.272,0h3.636v3.636H36.822V29.55Zm10.908,0h3.636v3.636H47.73V29.55Zm3.636,0H55v3.636H51.366V29.55Zm10.908,0H65.91v3.636H62.274V29.55Zm10.908,0h3.636v3.636H73.182V29.55Zm7.272,0H84.09v3.636H80.454V29.55Zm3.636,0h3.636v3.636H84.09V29.55Zm3.636,0h3.636v3.636H87.726V29.55Zm3.636,0H95v3.636H91.362V29.55Zm3.636,0h3.636v3.636H95V29.55Zm7.272,0h3.636v3.636H102.27V29.55Zm7.272,0h3.636v3.636h-3.636V29.55Zm7.272,0h3.636v3.636h-3.636V29.55Zm3.636,0h3.636v3.636H120.45V29.55Zm3.636,0h3.636v3.636h-3.636V29.55Zm7.272,0h3.636v3.636h-3.636V29.55ZM15.006,33.186h3.636v3.636H15.006V33.186Zm21.816,0h3.636v3.636H36.822V33.186Zm14.544,0H55v3.636H51.366V33.186Zm3.636,0h3.636v3.636H55V33.186Zm3.636,0h3.636v3.636H58.638V33.186Zm3.636,0H65.91v3.636H62.274V33.186Zm3.636,0h3.636v3.636H65.91V33.186Zm3.636,0h3.636v3.636H69.546V33.186Zm10.908,0H84.09v3.636H80.454V33.186Zm3.636,0h3.636v3.636H84.09V33.186Zm3.636,0h3.636v3.636H87.726V33.186Zm7.272,0h3.636v3.636H95V33.186Zm3.636,0h3.636v3.636H98.634V33.186Zm3.636,0h3.636v3.636H102.27V33.186Zm7.272,0h3.636v3.636h-3.636V33.186Zm21.816,0h3.636v3.636h-3.636V33.186ZM15.006,36.822h3.636v3.636H15.006V36.822Zm3.636,0h3.636v3.636H18.642V36.822Zm3.636,0h3.636v3.636H22.278V36.822Zm3.636,0H29.55v3.636H25.914V36.822Zm3.636,0h3.636v3.636H29.55V36.822Zm3.636,0h3.636v3.636H33.186V36.822Zm3.636,0h3.636v3.636H36.822V36.822Zm7.272,0H47.73v3.636H44.094V36.822Zm7.272,0H55v3.636H51.366V36.822Zm7.272,0h3.636v3.636H58.638V36.822Zm7.272,0h3.636v3.636H65.91V36.822Zm7.272,0h3.636v3.636H73.182V36.822Zm7.272,0H84.09v3.636H80.454V36.822Zm7.272,0h3.636v3.636H87.726V36.822Zm7.272,0h3.636v3.636H95V36.822Zm7.272,0h3.636v3.636H102.27V36.822Zm7.272,0h3.636v3.636h-3.636V36.822Zm3.636,0h3.636v3.636h-3.636V36.822Zm3.636,0h3.636v3.636h-3.636V36.822Zm3.636,0h3.636v3.636H120.45V36.822Zm3.636,0h3.636v3.636h-3.636V36.822Zm3.636,0h3.636v3.636h-3.636V36.822Zm3.636,0h3.636v3.636h-3.636V36.822ZM69.546,40.458h3.636v3.636H69.546V40.458Zm10.908,0H84.09v3.636H80.454V40.458Zm10.908,0H95v3.636H91.362V40.458Zm3.636,0h3.636v3.636H95V40.458Zm3.636,0h3.636v3.636H98.634V40.458ZM22.278,44.094h3.636V47.73H22.278V44.094Zm7.272,0h3.636V47.73H29.55V44.094Zm3.636,0h3.636V47.73H33.186V44.094Zm3.636,0h3.636V47.73H36.822V44.094Zm7.272,0H47.73V47.73H44.094V44.094Zm7.272,0H55V47.73H51.366V44.094Zm3.636,0h3.636V47.73H55V44.094Zm7.272,0H65.91V47.73H62.274V44.094Zm3.636,0h3.636V47.73H65.91V44.094Zm3.636,0h3.636V47.73H69.546V44.094Zm7.272,0h3.636V47.73H76.818V44.094Zm3.636,0H84.09V47.73H80.454V44.094Zm3.636,0h3.636V47.73H84.09V44.094Zm3.636,0h3.636V47.73H87.726V44.094Zm3.636,0H95V47.73H91.362V44.094Zm10.908,0h3.636V47.73H102.27V44.094Zm3.636,0h3.636V47.73h-3.636V44.094Zm14.544,0h3.636V47.73H120.45V44.094Zm10.908,0h3.636V47.73h-3.636V44.094ZM15.006,47.73h3.636v3.636H15.006V47.73Zm10.908,0H29.55v3.636H25.914V47.73Zm3.636,0h3.636v3.636H29.55V47.73Zm10.908,0h3.636v3.636H40.458V47.73Zm7.272,0h3.636v3.636H47.73V47.73Zm3.636,0H55v3.636H51.366V47.73Zm3.636,0h3.636v3.636H55V47.73Zm3.636,0h3.636v3.636H58.638V47.73Zm7.272,0h3.636v3.636H65.91V47.73Zm10.908,0h3.636v3.636H76.818V47.73Zm3.636,0H84.09v3.636H80.454V47.73Zm21.816,0h3.636v3.636H102.27V47.73Zm7.272,0h3.636v3.636h-3.636V47.73Zm18.18,0h3.636v3.636h-3.636V47.73Zm3.636,0h3.636v3.636h-3.636V47.73ZM15.006,51.366h3.636V55H15.006V51.366Zm7.272,0h3.636V55H22.278V51.366Zm3.636,0H29.55V55H25.914V51.366Zm10.908,0h3.636V55H36.822V51.366Zm3.636,0h3.636V55H40.458V51.366Zm10.908,0H55V55H51.366V51.366Zm3.636,0h3.636V55H55V51.366Zm3.636,0h3.636V55H58.638V51.366Zm3.636,0H65.91V55H62.274V51.366Zm18.18,0H84.09V55H80.454V51.366Zm7.272,0h3.636V55H87.726V51.366Zm3.636,0H95V55H91.362V51.366Zm14.544,0h3.636V55h-3.636V51.366Zm10.908,0h3.636V55h-3.636V51.366Zm7.272,0h3.636V55h-3.636V51.366Zm3.636,0h3.636V55h-3.636V51.366Zm3.636,0h3.636V55h-3.636V51.366ZM18.642,55h3.636v3.636H18.642V55Zm7.272,0H29.55v3.636H25.914V55Zm3.636,0h3.636v3.636H29.55V55Zm3.636,0h3.636v3.636H33.186V55Zm7.272,0h3.636v3.636H40.458V55Zm3.636,0H47.73v3.636H44.094V55Zm3.636,0h3.636v3.636H47.73V55ZM55,55h3.636v3.636H55V55Zm3.636,0h3.636v3.636H58.638V55Zm7.272,0h3.636v3.636H65.91V55Zm40,0h3.636v3.636h-3.636V55Zm3.636,0h3.636v3.636h-3.636V55Zm18.18,0h3.636v3.636h-3.636V55Zm3.636,0h3.636v3.636h-3.636V55ZM33.186,58.638h3.636v3.636H33.186V58.638Zm3.636,0h3.636v3.636H36.822V58.638Zm21.816,0h3.636v3.636H58.638V58.638Zm3.636,0H65.91v3.636H62.274V58.638Zm7.272,0h3.636v3.636H69.546V58.638Zm7.272,0h3.636v3.636H76.818V58.638Zm3.636,0H84.09v3.636H80.454V58.638Zm25.452,0h3.636v3.636h-3.636V58.638Zm3.636,0h3.636v3.636h-3.636V58.638Zm7.272,0h3.636v3.636h-3.636V58.638ZM15.006,62.274h3.636V65.91H15.006V62.274Zm3.636,0h3.636V65.91H18.642V62.274Zm3.636,0h3.636V65.91H22.278V62.274Zm3.636,0H29.55V65.91H25.914V62.274Zm3.636,0h3.636V65.91H29.55V62.274Zm29.088,0h3.636V65.91H58.638V62.274Zm7.272,0h3.636V65.91H65.91V62.274Zm3.636,0h3.636V65.91H69.546V62.274Zm3.636,0h3.636V65.91H73.182V62.274Zm10.908,0h3.636V65.91H84.09V62.274Zm3.636,0h3.636V65.91H87.726V62.274Zm14.544,0h3.636V65.91H102.27V62.274Zm3.636,0h3.636V65.91h-3.636V62.274Zm3.636,0h3.636V65.91h-3.636V62.274Zm10.908,0h3.636V65.91H120.45V62.274Zm3.636,0h3.636V65.91h-3.636V62.274Zm3.636,0h3.636V65.91h-3.636V62.274Zm3.636,0h3.636V65.91h-3.636V62.274ZM18.642,65.91h3.636v3.636H18.642V65.91Zm10.908,0h3.636v3.636H29.55V65.91Zm3.636,0h3.636v3.636H33.186V65.91Zm3.636,0h3.636v3.636H36.822V65.91Zm14.544,0H55v3.636H51.366V65.91Zm3.636,0h3.636v3.636H55V65.91Zm29.088,0h3.636v3.636H84.09V65.91Zm3.636,0h3.636v3.636H87.726V65.91Zm3.636,0H95v3.636H91.362V65.91Zm10.908,0h3.636v3.636H102.27V65.91Zm3.636,0h3.636v3.636h-3.636V65.91Zm7.272,0h3.636v3.636h-3.636V65.91Zm3.636,0h3.636v3.636h-3.636V65.91Zm7.272,0h3.636v3.636h-3.636V65.91Zm3.636,0h3.636v3.636h-3.636V65.91Zm3.636,0h3.636v3.636h-3.636V65.91ZM18.642,69.546h3.636v3.636H18.642V69.546Zm3.636,0h3.636v3.636H22.278V69.546Zm3.636,0H29.55v3.636H25.914V69.546Zm14.544,0h3.636v3.636H40.458V69.546Zm3.636,0H47.73v3.636H44.094V69.546Zm7.272,0H55v3.636H51.366V69.546Zm3.636,0h3.636v3.636H55V69.546Zm3.636,0h3.636v3.636H58.638V69.546Zm3.636,0H65.91v3.636H62.274V69.546Zm3.636,0h3.636v3.636H65.91V69.546Zm3.636,0h3.636v3.636H69.546V69.546Zm3.636,0h3.636v3.636H73.182V69.546Zm3.636,0h3.636v3.636H76.818V69.546Zm3.636,0H84.09v3.636H80.454V69.546Zm3.636,0h3.636v3.636H84.09V69.546Zm7.272,0H95v3.636H91.362V69.546Zm3.636,0h3.636v3.636H95V69.546Zm7.272,0h3.636v3.636H102.27V69.546Zm7.272,0h3.636v3.636h-3.636V69.546Zm18.18,0h3.636v3.636h-3.636V69.546Zm3.636,0h3.636v3.636h-3.636V69.546ZM15.006,73.182h3.636v3.636H15.006V73.182Zm7.272,0h3.636v3.636H22.278V73.182Zm3.636,0H29.55v3.636H25.914V73.182Zm3.636,0h3.636v3.636H29.55V73.182Zm7.272,0h3.636v3.636H36.822V73.182Zm10.908,0h3.636v3.636H47.73V73.182Zm10.908,0h3.636v3.636H58.638V73.182Zm3.636,0H65.91v3.636H62.274V73.182Zm3.636,0h3.636v3.636H65.91V73.182Zm14.544,0H84.09v3.636H80.454V73.182Zm3.636,0h3.636v3.636H84.09V73.182Zm7.272,0H95v3.636H91.362V73.182Zm3.636,0h3.636v3.636H95V73.182Zm3.636,0h3.636v3.636H98.634V73.182Zm10.908,0h3.636v3.636h-3.636V73.182Zm10.908,0h3.636v3.636H120.45V73.182Zm7.272,0h3.636v3.636h-3.636V73.182ZM18.642,76.818h3.636v3.636H18.642V76.818Zm7.272,0H29.55v3.636H25.914V76.818Zm25.452,0H55v3.636H51.366V76.818Zm18.18,0h3.636v3.636H69.546V76.818Zm7.272,0h3.636v3.636H76.818V76.818Zm7.272,0h3.636v3.636H84.09V76.818Zm3.636,0h3.636v3.636H87.726V76.818Zm18.18,0h3.636v3.636h-3.636V76.818Zm3.636,0h3.636v3.636h-3.636V76.818Zm10.908,0h3.636v3.636H120.45V76.818Zm3.636,0h3.636v3.636h-3.636V76.818Zm7.272,0h3.636v3.636h-3.636V76.818ZM18.642,80.454h3.636V84.09H18.642V80.454Zm3.636,0h3.636V84.09H22.278V80.454Zm10.908,0h3.636V84.09H33.186V80.454Zm3.636,0h3.636V84.09H36.822V80.454Zm3.636,0h3.636V84.09H40.458V80.454Zm7.272,0h3.636V84.09H47.73V80.454Zm3.636,0H55V84.09H51.366V80.454Zm3.636,0h3.636V84.09H55V80.454Zm3.636,0h3.636V84.09H58.638V80.454Zm10.908,0h3.636V84.09H69.546V80.454Zm3.636,0h3.636V84.09H73.182V80.454Zm7.272,0H84.09V84.09H80.454V80.454Zm7.272,0h3.636V84.09H87.726V80.454Zm3.636,0H95V84.09H91.362V80.454Zm14.544,0h3.636V84.09h-3.636V80.454Zm3.636,0h3.636V84.09h-3.636V80.454Zm3.636,0h3.636V84.09h-3.636V80.454Zm3.636,0h3.636V84.09h-3.636V80.454Zm7.272,0h3.636V84.09h-3.636V80.454Zm7.272,0h3.636V84.09h-3.636V80.454ZM15.006,84.09h3.636v3.636H15.006V84.09Zm7.272,0h3.636v3.636H22.278V84.09Zm7.272,0h3.636v3.636H29.55V84.09Zm3.636,0h3.636v3.636H33.186V84.09Zm10.908,0H47.73v3.636H44.094V84.09Zm7.272,0H55v3.636H51.366V84.09Zm18.18,0h3.636v3.636H69.546V84.09Zm7.272,0h3.636v3.636H76.818V84.09Zm14.544,0H95v3.636H91.362V84.09Zm3.636,0h3.636v3.636H95V84.09Zm10.908,0h3.636v3.636h-3.636V84.09Zm7.272,0h3.636v3.636h-3.636V84.09Zm18.18,0h3.636v3.636h-3.636V84.09ZM18.642,87.726h3.636v3.636H18.642V87.726Zm3.636,0h3.636v3.636H22.278V87.726Zm14.544,0h3.636v3.636H36.822V87.726Zm18.18,0h3.636v3.636H55V87.726Zm3.636,0h3.636v3.636H58.638V87.726Zm3.636,0H65.91v3.636H62.274V87.726Zm3.636,0h3.636v3.636H65.91V87.726Zm3.636,0h3.636v3.636H69.546V87.726Zm3.636,0h3.636v3.636H73.182V87.726Zm14.544,0h3.636v3.636H87.726V87.726Zm3.636,0H95v3.636H91.362V87.726Zm10.908,0h3.636v3.636H102.27V87.726Zm7.272,0h3.636v3.636h-3.636V87.726Zm10.908,0h3.636v3.636H120.45V87.726Zm7.272,0h3.636v3.636h-3.636V87.726ZM22.278,91.362h3.636V95H22.278V91.362Zm3.636,0H29.55V95H25.914V91.362Zm3.636,0h3.636V95H29.55V91.362Zm14.544,0H47.73V95H44.094V91.362Zm7.272,0H55V95H51.366V91.362Zm3.636,0h3.636V95H55V91.362Zm3.636,0h3.636V95H58.638V91.362Zm3.636,0H65.91V95H62.274V91.362Zm3.636,0h3.636V95H65.91V91.362Zm7.272,0h3.636V95H73.182V91.362Zm3.636,0h3.636V95H76.818V91.362Zm3.636,0H84.09V95H80.454V91.362Zm7.272,0h3.636V95H87.726V91.362Zm7.272,0h3.636V95H95V91.362Zm3.636,0h3.636V95H98.634V91.362Zm3.636,0h3.636V95H102.27V91.362Zm3.636,0h3.636V95h-3.636V91.362Zm18.18,0h3.636V95h-3.636V91.362Zm7.272,0h3.636V95h-3.636V91.362ZM15.006,95h3.636v3.636H15.006V95Zm18.18,0h3.636v3.636H33.186V95Zm3.636,0h3.636v3.636H36.822V95Zm7.272,0H47.73v3.636H44.094V95Zm7.272,0H55v3.636H51.366V95ZM55,95h3.636v3.636H55V95ZM65.91,95h3.636v3.636H65.91V95Zm10.908,0h3.636v3.636H76.818V95Zm3.636,0H84.09v3.636H80.454V95Zm3.636,0h3.636v3.636H84.09V95Zm3.636,0h3.636v3.636H87.726V95Zm10.908,0h3.636v3.636H98.634V95Zm3.636,0h3.636v3.636H102.27V95Zm7.272,0h3.636v3.636h-3.636V95Zm3.636,0h3.636v3.636h-3.636V95Zm3.636,0h3.636v3.636h-3.636V95Zm7.272,0h3.636v3.636h-3.636V95Zm3.636,0h3.636v3.636h-3.636V95Zm3.636,0h3.636v3.636h-3.636V95ZM18.642,98.634h3.636v3.636H18.642V98.634Zm3.636,0h3.636v3.636H22.278V98.634Zm10.908,0h3.636v3.636H33.186V98.634Zm7.272,0h3.636v3.636H40.458V98.634Zm21.816,0H65.91v3.636H62.274V98.634Zm18.18,0H84.09v3.636H80.454V98.634Zm10.908,0H95v3.636H91.362V98.634Zm3.636,0h3.636v3.636H95V98.634Zm7.272,0h3.636v3.636H102.27V98.634Zm3.636,0h3.636v3.636h-3.636V98.634Zm7.272,0h3.636v3.636h-3.636V98.634Zm3.636,0h3.636v3.636h-3.636V98.634ZM15.006,102.27h3.636v3.636H15.006V102.27Zm7.272,0h3.636v3.636H22.278V102.27Zm3.636,0H29.55v3.636H25.914V102.27Zm3.636,0h3.636v3.636H29.55V102.27Zm3.636,0h3.636v3.636H33.186V102.27Zm3.636,0h3.636v3.636H36.822V102.27Zm14.544,0H55v3.636H51.366V102.27Zm3.636,0h3.636v3.636H55V102.27Zm3.636,0h3.636v3.636H58.638V102.27Zm7.272,0h3.636v3.636H65.91V102.27Zm7.272,0h3.636v3.636H73.182V102.27Zm3.636,0h3.636v3.636H76.818V102.27Zm14.544,0H95v3.636H91.362V102.27Zm3.636,0h3.636v3.636H95V102.27Zm3.636,0h3.636v3.636H98.634V102.27Zm3.636,0h3.636v3.636H102.27V102.27Zm3.636,0h3.636v3.636h-3.636V102.27Zm3.636,0h3.636v3.636h-3.636V102.27Zm3.636,0h3.636v3.636h-3.636V102.27Zm3.636,0h3.636v3.636h-3.636V102.27Zm10.908,0h3.636v3.636h-3.636V102.27Zm3.636,0h3.636v3.636h-3.636V102.27Zm-87.264,3.636H47.73v3.636H44.094v-3.636Zm3.636,0h3.636v3.636H47.73v-3.636Zm3.636,0H55v3.636H51.366v-3.636Zm3.636,0h3.636v3.636H55v-3.636Zm7.272,0H65.91v3.636H62.274v-3.636Zm3.636,0h3.636v3.636H65.91v-3.636Zm3.636,0h3.636v3.636H69.546v-3.636Zm18.18,0h3.636v3.636H87.726v-3.636Zm3.636,0H95v3.636H91.362v-3.636Zm7.272,0h3.636v3.636H98.634v-3.636Zm3.636,0h3.636v3.636H102.27v-3.636Zm14.544,0h3.636v3.636h-3.636v-3.636Zm3.636,0h3.636v3.636H120.45v-3.636Zm3.636,0h3.636v3.636h-3.636v-3.636Zm7.272,0h3.636v3.636h-3.636v-3.636ZM15.006,109.542h3.636v3.636H15.006v-3.636Zm3.636,0h3.636v3.636H18.642v-3.636Zm3.636,0h3.636v3.636H22.278v-3.636Zm3.636,0H29.55v3.636H25.914v-3.636Zm3.636,0h3.636v3.636H29.55v-3.636Zm3.636,0h3.636v3.636H33.186v-3.636Zm3.636,0h3.636v3.636H36.822v-3.636Zm14.544,0H55v3.636H51.366v-3.636Zm3.636,0h3.636v3.636H55v-3.636Zm10.908,0h3.636v3.636H65.91v-3.636Zm10.908,0h3.636v3.636H76.818v-3.636Zm10.908,0h3.636v3.636H87.726v-3.636Zm7.272,0h3.636v3.636H95v-3.636Zm3.636,0h3.636v3.636H98.634v-3.636Zm3.636,0h3.636v3.636H102.27v-3.636Zm7.272,0h3.636v3.636h-3.636v-3.636Zm7.272,0h3.636v3.636h-3.636v-3.636Zm3.636,0h3.636v3.636H120.45v-3.636Zm3.636,0h3.636v3.636h-3.636v-3.636Zm3.636,0h3.636v3.636h-3.636v-3.636Zm3.636,0h3.636v3.636h-3.636v-3.636ZM15.006,113.178h3.636v3.636H15.006v-3.636Zm21.816,0h3.636v3.636H36.822v-3.636Zm7.272,0H47.73v3.636H44.094v-3.636Zm25.452,0h3.636v3.636H69.546v-3.636Zm21.816,0H95v3.636H91.362v-3.636Zm3.636,0h3.636v3.636H95v-3.636Zm7.272,0h3.636v3.636H102.27v-3.636Zm14.544,0h3.636v3.636h-3.636v-3.636Zm14.544,0h3.636v3.636h-3.636v-3.636ZM15.006,116.814h3.636v3.636H15.006v-3.636Zm7.272,0h3.636v3.636H22.278v-3.636Zm3.636,0H29.55v3.636H25.914v-3.636Zm3.636,0h3.636v3.636H29.55v-3.636Zm7.272,0h3.636v3.636H36.822v-3.636Zm7.272,0H47.73v3.636H44.094v-3.636Zm3.636,0h3.636v3.636H47.73v-3.636Zm3.636,0H55v3.636H51.366v-3.636Zm3.636,0h3.636v3.636H55v-3.636Zm3.636,0h3.636v3.636H58.638v-3.636Zm7.272,0h3.636v3.636H65.91v-3.636Zm7.272,0h3.636v3.636H73.182v-3.636Zm3.636,0h3.636v3.636H76.818v-3.636Zm3.636,0H84.09v3.636H80.454v-3.636Zm14.544,0h3.636v3.636H95v-3.636Zm7.272,0h3.636v3.636H102.27v-3.636Zm3.636,0h3.636v3.636h-3.636v-3.636Zm3.636,0h3.636v3.636h-3.636v-3.636Zm3.636,0h3.636v3.636h-3.636v-3.636Zm3.636,0h3.636v3.636h-3.636v-3.636Zm10.908,0h3.636v3.636h-3.636v-3.636ZM15.006,120.45h3.636v3.636H15.006V120.45Zm7.272,0h3.636v3.636H22.278V120.45Zm3.636,0H29.55v3.636H25.914V120.45Zm3.636,0h3.636v3.636H29.55V120.45Zm7.272,0h3.636v3.636H36.822V120.45Zm10.908,0h3.636v3.636H47.73V120.45Zm3.636,0H55v3.636H51.366V120.45Zm3.636,0h3.636v3.636H55V120.45Zm3.636,0h3.636v3.636H58.638V120.45Zm7.272,0h3.636v3.636H65.91V120.45Zm3.636,0h3.636v3.636H69.546V120.45Zm10.908,0H84.09v3.636H80.454V120.45Zm3.636,0h3.636v3.636H84.09V120.45Zm10.908,0h3.636v3.636H95V120.45Zm3.636,0h3.636v3.636H98.634V120.45Zm3.636,0h3.636v3.636H102.27V120.45Zm14.544,0h3.636v3.636h-3.636V120.45Zm3.636,0h3.636v3.636H120.45V120.45ZM15.006,124.086h3.636v3.636H15.006v-3.636Zm7.272,0h3.636v3.636H22.278v-3.636Zm3.636,0H29.55v3.636H25.914v-3.636Zm3.636,0h3.636v3.636H29.55v-3.636Zm7.272,0h3.636v3.636H36.822v-3.636Zm7.272,0H47.73v3.636H44.094v-3.636Zm3.636,0h3.636v3.636H47.73v-3.636Zm14.544,0H65.91v3.636H62.274v-3.636Zm14.544,0h3.636v3.636H76.818v-3.636Zm7.272,0h3.636v3.636H84.09v-3.636Zm10.908,0h3.636v3.636H95v-3.636Zm3.636,0h3.636v3.636H98.634v-3.636Zm7.272,0h3.636v3.636h-3.636v-3.636Zm7.272,0h3.636v3.636h-3.636v-3.636Zm3.636,0h3.636v3.636h-3.636v-3.636Zm3.636,0h3.636v3.636H120.45v-3.636Zm10.908,0h3.636v3.636h-3.636v-3.636ZM15.006,127.722h3.636v3.636H15.006v-3.636Zm21.816,0h3.636v3.636H36.822v-3.636Zm14.544,0H55v3.636H51.366v-3.636Zm10.908,0H65.91v3.636H62.274v-3.636Zm7.272,0h3.636v3.636H69.546v-3.636Zm10.908,0H84.09v3.636H80.454v-3.636Zm10.908,0H95v3.636H91.362v-3.636Zm7.272,0h3.636v3.636H98.634v-3.636Zm3.636,0h3.636v3.636H102.27v-3.636Zm3.636,0h3.636v3.636h-3.636v-3.636Zm3.636,0h3.636v3.636h-3.636v-3.636Zm3.636,0h3.636v3.636h-3.636v-3.636Zm14.544,0h3.636v3.636h-3.636v-3.636ZM15.006,131.358h3.636v3.636H15.006v-3.636Zm3.636,0h3.636v3.636H18.642v-3.636Zm3.636,0h3.636v3.636H22.278v-3.636Zm3.636,0H29.55v3.636H25.914v-3.636Zm3.636,0h3.636v3.636H29.55v-3.636Zm3.636,0h3.636v3.636H33.186v-3.636Zm3.636,0h3.636v3.636H36.822v-3.636Zm10.908,0h3.636v3.636H47.73v-3.636Zm3.636,0H55v3.636H51.366v-3.636Zm3.636,0h3.636v3.636H55v-3.636Zm3.636,0h3.636v3.636H58.638v-3.636Zm3.636,0H65.91v3.636H62.274v-3.636Zm3.636,0h3.636v3.636H65.91v-3.636Zm3.636,0h3.636v3.636H69.546v-3.636Zm7.272,0h3.636v3.636H76.818v-3.636Zm10.908,0h3.636v3.636H87.726v-3.636Zm7.272,0h3.636v3.636H95v-3.636Zm7.272,0h3.636v3.636H102.27v-3.636Zm3.636,0h3.636v3.636h-3.636v-3.636Zm7.272,0h3.636v3.636h-3.636v-3.636Zm3.636,0h3.636v3.636h-3.636v-3.636Zm3.636,0h3.636v3.636H120.45v-3.636Zm7.272,0h3.636v3.636h-3.636v-3.636Zm3.636,0h3.636v3.636h-3.636v-3.636Z"/>
</svg>
