<svg width="20" height="20" viewBox="0 0 20 20" fill="none" xmlns="http://www.w3.org/2000/svg">
<path fill-rule="evenodd" clip-rule="evenodd" d="M8.52234 1.99881L1.27178 15.8957C0.692854 17.0053 1.49787 18.3333 2.74942 18.3333H17.2505C18.5021 18.3333 19.3071 17.0053 18.7282 15.8957L11.4776 1.99881C10.8545 0.804513 9.14546 0.804515 8.52234 1.99881ZM10.9512 11.675C10.8836 12.1484 10.4782 12.5 10 12.5C9.52187 12.5 9.11647 12.1484 9.04885 11.675L8.56907 8.31658C8.44466 7.44577 9.12038 6.66667 10 6.66667C10.8797 6.66667 11.5554 7.44577 11.431 8.31658L10.9512 11.675ZM11.25 15.4167C11.25 16.107 10.6904 16.6667 10 16.6667C9.30967 16.6667 8.75003 16.107 8.75003 15.4167C8.75003 14.7263 9.30967 14.1667 10 14.1667C10.6904 14.1667 11.25 14.7263 11.25 15.4167Z" fill="#FC8800"/>
</svg>
