<svg width="16" height="16" viewBox="0 0 16 16" fill="none" xmlns="http://www.w3.org/2000/svg">
<path d="M11.7712 13.1855C12.1617 13.576 12.7949 13.576 13.1854 13.1855C13.5759 12.7949 13.5759 12.1618 13.1854 11.7712L9.41416 8.00001L13.1854 4.22877C13.5759 3.83825 13.5759 3.20509 13.1854 2.81456C12.7949 2.42404 12.1617 2.42404 11.7712 2.81456L7.99995 6.5858L4.22871 2.81456C3.83819 2.42404 3.20502 2.42404 2.8145 2.81456C2.42398 3.20509 2.42398 3.83825 2.8145 4.22877L6.58574 8.00001L2.8145 11.7712C2.42398 12.1618 2.42398 12.7949 2.8145 13.1855C3.20502 13.576 3.83819 13.576 4.22871 13.1855L7.99995 9.41422L11.7712 13.1855Z" fill="#6B7075"/>
</svg>
