<svg width="10" height="12" viewBox="0 0 10 12" fill="none" xmlns="http://www.w3.org/2000/svg">
<path d="M4.55184 0.543964C4.55184 0.829279 4.24477 1.95688 3.54311 2.63046C2.84145 3.30404 1.70027 4.12861 1.13994 5.32692C0.579608 6.52523 0.540915 8.46324 1.57273 9.75445C2.60455 11.0457 3.4945 11.5 5.28479 11.5C7.07509 11.5 8.48779 10.1945 8.95921 8.81287C9.43062 7.43128 9.25322 6.1526 8.95921 5.32692C8.66519 4.50124 8.69154 3.9739 8.57365 3.78322C8.45576 3.59254 8.08122 4.37022 7.53275 4.8655C6.98428 5.36079 6.36692 5.78562 6.4921 5.55627C6.61728 5.32692 7.18225 4.05163 6.38775 2.7285C5.59326 1.40537 4.55184 0.25865 4.55184 0.543964Z" stroke="#333333" stroke-opacity="0.9"/>
</svg>
