<svg width="42" height="42" viewBox="0 0 42 42" fill="none" xmlns="http://www.w3.org/2000/svg">
<path d="M9.89111 10.0435C7.95812 10.0435 6.39111 11.6105 6.39111 13.5435V26.6304C6.39111 28.5634 7.95812 30.1304 9.89111 30.1304H15.4661C16.2617 30.1304 17.0248 30.4465 17.5874 31.0091L19.8722 33.294C20.6533 34.075 21.9196 34.075 22.7007 33.294L24.9855 31.0091C25.5481 30.4465 26.3112 30.1304 27.1068 30.1304H32.1085C34.0415 30.1304 35.6085 28.5634 35.6085 26.6304V13.5435C35.6085 11.6105 34.0415 10.0435 32.1085 10.0435H9.89111Z" fill="#161823" fill-opacity="0.3"/>
<path d="M21.4929 14.6087C20.1781 14.6087 19.1555 15.0104 18.425 15.8139C17.6946 16.5809 17.3477 17.6035 17.3477 18.8817H18.7903C18.7903 17.987 18.9911 17.2931 19.3929 16.7817C19.8311 16.1791 20.5068 15.887 21.4198 15.887C22.1868 15.887 22.7894 16.0878 23.2094 16.5261C23.6111 16.9278 23.8303 17.4939 23.8303 18.2244C23.8303 18.7357 23.6477 19.2104 23.2824 19.667C23.1729 19.8131 22.9537 20.0322 22.6616 20.3244C21.6755 21.2009 21.0729 21.8948 20.8172 22.4426C20.5981 22.8991 20.4885 23.4287 20.4885 24.0313V24.4513H21.9494V24.0313C21.9494 23.5383 22.059 23.1 22.2964 22.6983C22.479 22.3696 22.7529 22.0409 23.1546 21.6939C23.9581 20.9817 24.4511 20.507 24.6337 20.2878C25.0903 19.6852 25.3277 18.9731 25.3277 18.1513C25.3277 17.0557 24.9807 16.1974 24.305 15.5765C23.5929 14.9191 22.6616 14.6087 21.4929 14.6087ZM21.219 25.7296C20.9085 25.7296 20.6529 25.8209 20.4337 26.04C20.2146 26.2409 20.1233 26.4965 20.1233 26.807C20.1233 27.1174 20.2146 27.3731 20.4337 27.5922C20.6529 27.7931 20.9085 27.9026 21.219 27.9026C21.5294 27.9026 21.785 27.7931 22.0042 27.5922C22.2233 27.3913 22.3329 27.1357 22.3329 26.807C22.3329 26.4965 22.2233 26.2409 22.0224 26.04C21.8033 25.8209 21.5294 25.7296 21.219 25.7296Z" fill="white"/>
</svg>
