<svg width="12" height="10" viewBox="0 0 12 10" fill="none" xmlns="http://www.w3.org/2000/svg">
<path d="M6.14119 0.709418C6.70756 0.251743 7.39868 0 8.30205 0C10.3516 0 11.4143 1.37827 11.4143 3.70968C11.4143 4.46432 11.096 5.22661 10.5414 6.05218C10.2239 6.52482 9.83087 7.01151 9.37472 7.51266L9.19934 7.70118C8.55585 8.38069 7.50935 9.37579 7.62641 9.2445L7.56606 9.30476C7.39659 9.46713 7.20036 9.59278 6.97296 9.70655C6.74073 9.82272 6.52146 9.90428 6.3575 9.95473C6.16137 10.0151 5.95294 10.0151 5.75681 9.95473C5.59285 9.90428 5.37358 9.82272 5.14136 9.70655C4.91395 9.59278 4.71773 9.46713 4.54825 9.30476L4.4879 9.2445L4.49693 9.25592C4.50133 9.27707 3.52629 8.34671 2.91497 7.70118L2.73959 7.51266C2.28344 7.01151 1.89039 6.52482 1.5729 6.05218C1.01835 5.22661 0.700012 4.46432 0.700012 3.70968C0.700012 1.37827 1.76272 0 3.81226 0C4.71563 0 5.40675 0.251743 5.97312 0.709418L6.05716 0.779603L6.14119 0.709418ZM8.30205 1.12903C6.6694 1.12903 6.46532 2.2043 6.05716 2.2043C5.64899 2.2043 5.44491 1.12903 3.81226 1.12903C2.38369 1.12903 1.77144 1.98925 1.77144 3.70968C1.77144 5.37276 4.79426 8.00697 5.20761 8.40752L5.2785 8.47797C5.46534 8.64849 5.7996 8.78108 5.96258 8.83906L6.05716 8.87097L6.15173 8.83906C6.31471 8.78108 6.64897 8.64849 6.83581 8.47797L6.9067 8.40752L7.38504 7.96045C8.35791 7.04272 10.3429 5.05735 10.3429 3.70968C10.3429 1.98925 9.73062 1.12903 8.30205 1.12903Z" fill="#333333" fill-opacity="0.9"/>
</svg>
